<?xml version="1.0"?>
<!DOCTYPE svg PUBLIC "-//W3C//DTD SVG 1.1//EN"
	"http://www.w3.org/Graphics/SVG/1.1/DTD/svg11.dtd">
<svg xmlns="http://www.w3.org/2000/svg" version="1.1"
	xmlns:xlink="http://www.w3.org/1999/xlink"
	viewBox="0 0 100 100" preserveAspectRatio="xMidYMid" >

  <defs >

<rect id="neutralsquare"
	x="0" y="0" width="1" height="1"
	fill="#DDD" />

<rect id="villagesquare"
	x="0" y="0" width="1" height="1"
	fill="#C6D2FF" />

<rect id="wolfsquare"
	x="0" y="0" width="1" height="1"
	fill="#EEC6C6" />

<g id="nomark" />

<g id="deathmark">
<path d="M 0.02 0
	L 1 0.825
	L 0.98 1
	L 0 0.175
	z"
	fill="#884" />
<path d="M 0.98 0
	L 0 0.825
	L 0.02 1
	L 1 0.175
	z"
	fill="#884" />
</g>

<g id="sanctuarymark"
	fill="#696" >
<path d="M 0 0  L 0.17 0  L 0.15 0.15  L 0 0.17 z" />
<path d="M 1 0  L 0.83 0  L 0.85 0.15  L 1 0.17 z" />
<path d="M 0 1  L 0.17 1  L 0.15 0.85  L 0 0.83 z" />
<path d="M 1 1  L 0.83 1  L 0.85 0.85  L 1 0.83 z" />

</g>

    <g transform="scale(0.0035) translate(-95,-355)"
       stroke="black" fill="none"
       stroke-width="15" stroke-linecap="round" stroke-linejoin="miter"
       id="nothing">
      <path
         d="M 250.51783,386.67166 C 236.78255,374.18503 193.41013,395.29204 182.83761,405.86455 C 144.83877,443.86339 126.9048,452.14829 122.22846,512.94072 C 117.02363,580.60344 183.5362,611.93567 244.45692,611.93567 C 281.77313,611.93567 339.17706,562.05376 348.50263,527.08286 C 366.09188,461.12318 317.73823,411.29548 262.63966,387.68181 C 256.83802,385.19539 246.89042,385.58343 240.41631,383.6412"
         id="path2459" />
      <path
         d="M 217.1717,462.59198 C 217.1717,462.78178 217.1717,473.03387 217.1717,479.62506"
         id="path2567" />
      <path
         d="M 272.52919,462.59198 C 272.52919,462.78178 272.52919,473.03387 272.52919,479.62506"
         id="path2569" />
    </g>

    <g transform="scale(0.0035) translate(-77,-77)"
       stroke="black" fill="none"
       stroke-width="15" stroke-linecap="round" stroke-linejoin="miter"
       id="unknown">
      <path
         d="M 246.47722,114.94062 C 203.88482,97.903661 140.14142,135.86308 125.25892,175.54977 C 104.16963,231.78788 117.34766,294.89978 180.81731,313.94067 C 226.5132,327.64944 291.27026,345.9712 312.13714,291.71732 C 329.27529,247.15812 323.89174,171.14193 287.89348,135.14367 C 270.27069,117.52088 249.71456,115.95077 227.28432,115.95077"
         id="path2449" />
      <path
         d="M 198.00949,185.80453 C 198.00949,185.97451 198.00949,194.34762 198.00949,200.70847"
         id="path2537" />
      <path
         d="M 240.59218,187.93366 C 239.53588,188.77047 242.33283,200.11823 242.72131,202.8376"
         id="path2539" />
      <path
         d="M 204.2899,259.70062 C 205.37994,260.79066 208.11102,258.1951 216.65509,258.1951 C 219.12847,258.1951 230.91008,261.67632 232.07564,262.45336"
         id="path2621" />
    </g>

    <g transform="scale(0.0035) translate(200,-355)"
       stroke="black" fill="none"
       stroke-width="15" stroke-linecap="round" stroke-linejoin="miter"
       id="villager2">
      <path
         d="M -10.101525,394.75288 C -60.314681,385.33791 -101.05349,361.99302 -134.35029,423.03715 C -156.90643,464.39008 -183.25791,537.77423 -145.46197,575.57018 C -99.928117,621.10403 28.724131,634.52986 48.487322,560.41789 C 64.676959,499.70675 53.554726,420.21538 -10.101525,394.75288 C -25.281038,388.68107 -47.103823,383.9596 -62.629458,391.72242"
         id="path2447" />
      <path
         d="M -78.777969,447.68804 C -78.777969,447.87784 -78.777969,458.12993 -78.777969,464.72112"
         id="path2563" />
      <path
         d="M -17.033074,447.68804 C -17.033074,448.33482 -17.033074,461.67674 -17.033074,468.97939"
         id="path2565" />
      <path
         d="M -85.814942,510.37308 C -85.814942,510.37308 -83.276938,525.98776 -79.792841,532.95596 C -68.348251,555.84513 -40.968915,556.31488 -27.099455,538.97806 C -22.861936,533.68116 -19.281504,525.48223 -18.066304,519.40623"
         id="path2643" />
    </g>

    <g transform="scale(0.0035) translate(-360,-625)"
       stroke="black" fill="none"
       stroke-width="15" stroke-linecap="round" stroke-linejoin="miter"
       id="villager5">
      <path
         d="M 541.44176,662.4433 C 502.9939,644.69813 438.27089,677.23935 413.15239,704.86971 C 360.94482,762.29804 423.84153,847.69736 481.84276,872.55503 C 541.47315,898.11091 606.77738,863.67617 613.1626,799.82405 C 617.80434,753.40655 582.99774,662.89618 530.33009,655.37223 C 521.68962,654.13788 512.45503,655.29531 504.06612,657.39254"
         id="path2501" />
      <path
         d="M 481.18435,724.4755 C 486.42373,729.71488 474.79695,738.35724 474.79695,745.76684"
         id="path2599" />
      <path
         d="M 523.76704,724.4755 C 527.81301,728.52148 525.18646,735.83088 525.89617,741.50858"
         id="path2601" />
      <path
         d="M 459.18522,779.8621 C 459.18522,779.8621 470.72805,797.30169 477.25152,805.45603 C 491.31092,823.03028 510.03484,836.51937 525.42833,815.99471 C 532.43741,806.64926 534.11826,792.46008 535.96701,781.36763"
         id="path2655" />
    </g>

    <g transform="scale(0.0035) translate(465,-635)"
       stroke="black" fill="none"
       stroke-width="15" stroke-linecap="round" stroke-linejoin="miter"
       id="villager4">
      <path
         d="M -272.74119,667.49406 C -266.54558,662.84736 -288.23019,667.49406 -295.9747,667.49406 C -333.28665,667.49406 -401.05818,687.75236 -419.21331,724.06261 C -442.47179,770.57957 -433.72084,830.53696 -392.94934,865.48396 C -336.49675,913.87189 -243.69862,887.45273 -221.22341,820.0271 C -205.27407,772.17909 -226.35705,693.26303 -272.74119,667.49406 C -286.88523,659.63626 -293.26751,647.87691 -311.12698,652.34177"
         id="path2519" />
      <path
         d="M -342.79062,728.73377 C -342.6139,728.91049 -342.79062,734.9225 -342.79062,741.50858"
         id="path2587" />
      <path
         d="M -304.4662,724.4755 C -304.38673,724.55498 -304.4662,734.96308 -304.4662,741.50858"
         id="path2589" />
      <path
         d="M -367.34817,778.35658 C -367.34817,776.66263 -353.75969,819.00576 -313.14926,819.00576 C -292.8727,819.00576 -278.14362,808.27344 -270.99455,790.40078"
         id="path2661" />
    </g>

    <g transform="scale(0.0035) translate(-630,-635)"
       stroke="black" fill="none"
       stroke-width="15" stroke-linecap="round" stroke-linejoin="miter"
       id="villager6">
      <path
         d="M 816.20326,662.4433 C 770.18522,658.25984 721.83201,655.716 685.89358,696.78849 C 643.11315,745.68041 675.00445,830.91189 709.12709,873.56518 C 742.03647,914.70191 833.26104,895.68034 857.61951,857.40274 C 878.36299,824.80585 884.13572,740.81361 868.73119,704.86971 C 858.57766,681.17814 824.19242,672.89365 805.09158,661.43315"
         id="path2495" />
      <path
         d="M 743.06787,726.60464 C 743.29452,726.83129 743.06787,740.75096 743.06787,747.89598"
         id="path2605" />
      <path
         d="M 794.16709,730.8629 C 794.7131,731.40891 796.29623,742.78577 796.29623,750.02511"
         id="path2607" />
      <path
         d="M 715.12452,785.88421 C 715.12452,785.88421 721.91494,808.4982 727.16872,819.00576 C 739.86553,844.39939 752.36804,859.78648 779.8621,850.62179 C 798.74737,844.3267 802.44498,812.82716 802.44498,796.42288"
         id="path2675" />
    </g>

    <g transform="scale(0.0035) translate(-890,-77)"
       stroke="black" fill="none"
       stroke-width="15" stroke-linecap="round" stroke-linejoin="miter"
       id="villager1">
      <path
         d="M 1062.6805,114.94062 C 1071.5861,108.26138 1040.4775,112.92032 1029.3454,112.92032 C 1000.3506,112.92032 945.743,139.76326 940.45202,171.50916 C 932.17958,221.14377 937.05783,268.12007 973.78705,304.8493 C 1018.0313,349.09356 1107.5711,347.31754 1130.3607,284.64625 C 1146.0842,241.40672 1142.1481,158.04272 1108.1373,124.03199 C 1091.0694,106.96407 1065.962,107.86955 1043.4876,107.86955"
         id="path2479" />
      <path
         d="M 1011.3388,177.28799 C 1011.3388,177.70105 1011.3388,183.28818 1011.3388,190.06279"
         id="path2553" />
      <path
         d="M 1068.8254,179.41712 C 1068.8254,179.83018 1068.8254,185.41731 1068.8254,192.19193"
         id="path2555" />
      <path
         d="M 981.60249,228.83985 C 984.01647,243.58371 986.8826,245.91682 992.14117,252.92825 C 1009.3758,275.90777 1026.3174,281.53323 1053.8677,281.53323 C 1070.4052,281.53323 1085.282,249.6687 1090.0003,237.873 C 1090.2639,237.21405 1091.004,236.86931 1091.5058,236.36747"
         id="path2687" />
    </g>

    <g transform="scale(0.0035) translate(-900,-355)"
       stroke="black" fill="none"
       stroke-width="15" stroke-linecap="round" stroke-linejoin="miter"
       id="villager3">
      <path
         d="M 1083.8937,396.77318 C 1048.7342,382.70937 1001.1935,399.28435 966.71599,414.95593 C 923.14802,434.75955 918.13155,505.3986 935.40126,544.25545 C 969.31871,620.56972 1070.8231,615.75353 1132.381,576.58033 C 1187.3674,541.58898 1165.6722,457.83804 1129.3505,416.97623 C 1115.7394,401.66372 1092.5941,382.63105 1070.7617,382.63105"
         id="path2483" />
      <path
         d="M 1024.1136,456.20458 C 1024.1891,456.28011 1024.1136,464.78995 1024.1136,471.10852"
         id="path2583" />
      <path
         d="M 1075.2128,458.33371 C 1075.2883,458.40924 1075.2128,466.91909 1075.2128,473.23765"
         id="path2585" />
      <path
         d="M 990.63565,499.8344 C 991.47189,499.41627 995.26972,519.52373 1008.7019,532.95596 C 1029.7618,554.01584 1060.5892,548.41429 1085.4837,535.96701 C 1092.5492,532.43428 1099.9377,521.21164 1103.55,516.39518"
         id="path2693" />
    </g>

    <g transform="scale(0.0035) translate(-900,-625)"
       stroke="black" fill="none"
       stroke-width="15" stroke-linecap="round" stroke-linejoin="miter"
       id="villager7">
      <path
         d="M 1071.7719,659.41284 C 1061.1457,640.81705 972.98793,680.46777 960.65507,689.71742 C 927.40194,714.65727 926.7705,781.64662 936.41141,816.99664 C 954.08299,881.79243 1047.3844,888.38427 1099.046,868.51442 C 1146.2691,850.35168 1156.6247,782.74737 1156.6247,738.20474 C 1156.6247,695.5324 1080.0785,653.73873 1046.518,646.28086"
         id="path2487" />
      <path
         d="M 1015.5971,730.8629 C 1016.4926,731.75847 1014.2724,741.45994 1013.4679,747.89598"
         id="path2609" />
      <path
         d="M 1079.4711,728.73377 C 1081.208,730.47071 1078.6213,742.77866 1077.342,747.89598"
         id="path2611" />
      <path
         d="M 981.60249,787.38973 C 984.41961,801.03643 996.32244,809.6373 1005.6909,819.00576 C 1022.7971,836.11194 1064.6008,825.25842 1080.9672,812.98366 C 1083.8622,810.81236 1086.9893,808.96893 1090.0003,806.96156 C 1096.526,802.6111 1099.4322,790.90941 1102.0445,784.37868"
         id="path2695" />
    </g>

    <g transform="scale(0.0035) translate(196,-85)"
       stroke="black" fill="none"
       stroke-width="15" stroke-linecap="round" stroke-linejoin="miter"
       id="werewolf1">
      <path
         d="M -19.192898,111.91016 C -37.015748,94.087314 -108.8072,127.6869 -124.24876,148.27565 C -157.48908,192.59608 -171.8319,237.96729 -146.47212,288.68686 C -112.50329,356.62452 -28.440626,358.80502 24.243661,310.91021 C 61.395792,277.13555 65.719393,167.84492 21.213203,138.17413 C -1.5298253,123.01211 -36.033718,117.35294 -62.629458,112.92032"
         id="path2441" />
      <path
         d="M -83.036237,177.28799 C -83.036237,177.45797 -83.036237,185.83108 -83.036237,192.19193"
         id="path2531" />
      <path
         d="M -36.195283,181.54626 C -36.465599,181.94303 -35.16873,187.70557 -34.066149,194.32106"
         id="path2533" />
      <path
         d="M -99.36467,243.8951 C -95.017997,259.71775 -91.044819,269.48903 -67.748638,269.48903 C -40.100021,269.48903 -24.89319,258.70403 -16.560778,237.873"
         id="path2639" />
      <path
         d="M -80.825993,264.97245 L -71.792841,297.34125 L -65.017977,269.48903 L -80.825993,264.97245 z "
         fill="#d36060" stroke-width="5"
         id="path2697" />
      <path
         d="M -51.940623,268.73627 L -42.907471,295.08296 L -36.88537,264.21969 L -51.940623,268.73627 z "
         fill="#d36060" stroke-width="5"
         id="path2699" />
      <path
         d="M -31.616031,144.53043 C -21.199053,138.18199 -2.1807533,118.78143 6.0221012,102.37572 C 11.62583,91.168263 12.939172,135.45555 15.055253,146.03595 C 17.214837,156.83387 19.571829,167.11331 19.571829,167.11331"
         stroke-width="10" stroke-linejoin="round" />
      <path
         d="M -97.859144,149.58568 C -97.859144,149.58568 -114.2262,131.84226 -127.96965,108.9365 C -128.24712,108.47405 -134.90277,147.52414 -140.01385,178.19066 C -141.3847,186.41577 -141.51938,194.04163 -141.51938,202.27907"
         stroke-width="10" stroke-linejoin="round" />
    </g>

    <g transform="scale(0.0035) translate(-640,-80)"
       stroke="black" fill="none"
       stroke-width="15" stroke-linecap="round" stroke-linejoin="miter"
       id="seer">
      <path
         d="M 790.94944,115.95077 C 754.05321,111.33874 727.74743,131.06114 705.08648,159.38733 C 679.04632,191.93753 690.70908,246.25579 706.09663,279.59549 C 728.48622,328.10627 784.99526,333.95367 829.33524,314.95082 C 889.01676,289.37303 889.95212,232.1518 877.82256,179.59038 C 869.48663,143.46801 827.19323,110.37481 790.94944,115.95077 z "
         id="path2475" />
      <path
         d="M 809.07103,185.80453 C 811.07638,185.84332 809.86292,191.34772 811.20017,200.70847"
         id="path2547" />
      <path
         d="M 760.10094,181.54626 C 760.63618,182.25879 757.29708,191.35979 755.84267,196.4502"
         id="path2551" />
      <path
         d="M 730.17977,227.33432 C 734.6069,224.3829 740.19862,274.80495 766.31238,280.02771 C 799.79507,286.72424 807.9383,271.03497 825.02786,245.40062 C 827.13179,242.24474 826.53339,236.99778 826.53339,233.35642"
         id="path2683" />
      <g>
        <path
           d="M 786.1896,143.92249 L 769.41483,153.71948 L 784.57708,164.04876 L 803.59446,154.82647 L 786.1896,143.92249 z "
           fill="#a7b3f6" stroke-width="5" stroke-linejoin="round"
           id="path2701" />
        <path
           d="M 785.65055,151.73838 L 785.65055,155.99665"
           stroke-width="5"
           id="path2703" />
      </g>
    </g>

    <g transform="scale(0.0035) translate(465,-890)"
       stroke="black" fill="none"
       stroke-width="15" stroke-linecap="round" stroke-linejoin="miter"
       id="fool">
      <path
         d="M -298.67602,944.36633 C -361.37633,925.07393 -414.73242,969.85144 -421.85878,1030.4255 C -429.9127,1098.8838 -374.43289,1134.2028 -312.1755,1134.2028 C -279.14984,1134.2028 -237.53022,1097.1456 -226.96002,1067.5491 C -203.60559,1002.1567 -210.87582,968.20173 -275.89564,939.30403 C -285.64926,934.96909 -292.88272,933.39801 -302.89461,933.39801"
         id="path2348" />
      <path
         d="M -340.01818,994.98939 C -340.56437,995.53558 -345.99297,999.29967 -348.45535,1002.5828"
         id="path2382" />
      <path
         d="M -295.30115,997.52054 C -296.09787,998.31727 -288.80861,1004.4898 -287.70769,1005.9577"
         id="path2384" />
      <path
         d="M -374.6106,1039.7064 C -374.6106,1039.7064 -355.63116,1072.8202 -347.61164,1076.83 C -331.13041,1085.0706 -301.11009,1083.4827 -287.70769,1070.0803 C -278.3588,1060.7314 -273.30194,1053.7369 -270.83334,1041.3939"
         id="path2386" />
      <path
         d="M -310.48806,1083.5797 C -310.48806,1083.5797 -308.16221,1098.2117 -304.58204,1102.9852 C -300.74893,1108.096 -289.14137,1103.4006 -286.02025,1099.6103 C -279.57634,1091.7849 -285.17654,1075.705 -285.17654,1074.2988"
         stroke-width="8" 
         id="path2390" />
      <path
         d="M -316.9314,959.04909 L -333.70617,968.84608 L -318.54392,979.17536 L -299.52654,969.95307 L -316.9314,959.04909 z "
         fill="#a7b3f6" stroke-width="5" stroke-linejoin="round"
         id="path2403" />
    </g>

    <g transform="scale(0.0035) translate(190,-905)"
       stroke="black" fill="none"
       stroke-width="15" stroke-linecap="round" stroke-linejoin="miter"
       id="warlock">
      <path
         d="M -28.00961,938.24937 C -60.30187,914.03017 -113.28684,958.47787 -131.04517,980.67578 C -165.44583,1023.6766 -165.46302,1107.8927 -122.96395,1144.3205 C -71.10705,1188.7693 27.44211,1143.7684 50.78229,1087.7519 C 75.72571,1027.8877 51.32489,954.70295 -14.87762,942.28998 C -35.48209,938.42664 -58.47175,936.25158 -79.52739,939.25952"
         id="path2401" />
      <path
         d="M -74.860505,1036.496 C -74.860505,1036.496 -80.624299,1014.1245 -80.624299,1014.1245 C -80.624299,1014.1245 -72.624376,1027.0975 -74.860505,1036.496 z "
         stroke-linejoin="round"
         id="path2404" />
      <path
         d="M -26.12666,1038.5339 C -26.12666,1038.5339 -18.233733,1010.9308 -18.233733,1010.9308 C -18.233733,1010.9308 -30.050966,1029.2268 -26.12666,1038.5339 z "
         stroke-linejoin="round"
         id="path2406" />
      <path
         d="M -101.36457,1064.8788 C -101.36457,1064.8788 -94.33879,1078.9304 -90.8259,1085.9562 C -78.91639,1109.7752 -54.05309,1116.4128 -30.60488,1107.0335 C -7.71233,1097.8765 1.2633,1089.4641 7.03325,1066.3844"
         id="path2408" />
      <path
         d="M -63.087149,956.66085 L -63.102809,1007.4925 L -26.291752,964.11603 L -82.098037,982.48441 L -28.413056,997.5175 L -63.087149,956.66085 z "
         fill="#d36060" stroke-width="5" stroke-linejoin="round"
         id="path2418" />
    </g>

    <g transform="scale(0.0035) translate(205,-625)"
       stroke="black" fill="none"
       stroke-width="15" stroke-linecap="round" stroke-linejoin="miter"
       id="granger">
      <path
         d="M -13.131983,664.46361 C -61.059114,632.51218 -136.49943,674.38214 -155.56349,722.0423 C -184.32466,793.94521 -133.83505,875.70282 -56.568543,881.6464 C 0.91632412,886.06832 41.416254,845.61472 41.416254,789.72252 C 41.416254,729.66532 32.786836,681.67035 -30.304576,664.46361 C -35.5024,663.04602 -41.939435,663.45345 -47.47717,663.45345"
         id="path2511" />
      <path
         d="M -85.165372,718.0881 C -85.085893,718.16758 -85.165372,728.57568 -85.165372,735.12117"
         id="path2591" />
      <path
         d="M -102.37572,779.8621 C -102.24559,779.21148 -80.570687,823.52234 -43.660234,823.52234 C -24.406019,823.52234 -10.538677,800.70746 -10.538677,784.37868"
         id="path2659" />
      <path
         d="M -15.251042,716.15122 L -43.203767,729.01278 L -9.9438756,734.68064"
         stroke-width="8" stroke-linejoin="round"
         id="path2721" />
    </g>

    <g transform="scale(0.0035) translate(-85,-625)"
       stroke="black" fill="none"
       stroke-width="15" stroke-linecap="round" stroke-linejoin="miter"
       id="priest">
      <path
         d="M 146.9675,724.91301 C 118.4216,770.58644 135.00795,834.05419 172.73609,866.39259 C 204.13444,893.30546 282.43084,880.14238 305.06607,846.18954 C 333.0448,804.22144 332.67583,757.53471 307.46531,726.30209"
         id="path2503" />
      <path
         d="M 198.00949,744.34637 C 198.12502,744.4619 198.00949,756.71059 198.00949,763.50858"
         id="path2595" />
      <path
         d="M 246.97958,742.21723 C 247.05906,742.29671 246.97958,752.70481 246.97958,759.25031"
         id="path2597" />
      <path
         d="M 182.16856,791.36763 C 182.16856,791.36763 193.27576,813.01351 201.74039,821.47814 C 204.75144,824.48919 206.69792,827.50024 209.70897,830.51129 C 227.48689,848.28921 252.1413,834.45905 262.84332,816.07964 C 264.13094,813.86831 270.73625,798.089 270.73625,796.58348"
         id="path2657" />
      <path
         d="M 138.50833,718.56374 L 314.65479,721.57479 C 314.65479,695.98086 255.9393,655.70805 224.32327,655.33167 C 192.65352,654.95465 140.01385,700.49743 138.50833,718.56374 z "
         stroke-width="13"
         id="path2727" />
      <path
         d="M 209.10087,689.95405 L 242.36076,688.58876"
         stroke-width="8"
         id="path2729" />
      <path
         d="M 225.06938,673.98554 L 224.26312,714.13837"
         stroke-width="8"
         id="path2731" />
    </g>

    <g transform="scale(0.0035) translate(470,-80)"
       stroke="black" fill="none"
       stroke-width="15" stroke-linecap="round" stroke-linejoin="miter"
       id="slayer">
      <path
         d="M -325.74778,125.45989 C -369.35165,121.32465 -401.05656,139.40508 -416.66151,181.01828 C -432.54717,223.38004 -414.00162,278.63251 -383.32648,309.30766 C -350.30321,342.33092 -251.47034,337.94087 -240.89497,285.064 C -230.54914,233.33487 -240.44156,176.42092 -279.28076,137.58172 C -292.89725,123.96524 -305.74989,113.03553 -325.74778,116.36852"
         id="path2439" />
      <path
         d="M -358.85689,188.70858 C -358.85689,188.90094 -358.85689,198.7796 -358.85689,205.74166"
         id="path2523" />
      <path
         d="M -297.11199,186.57945 C -297.11199,187.46665 -297.11199,195.63144 -297.11199,203.61252"
         id="path2525" />
      <path
         d="M -362.8537,243.8951 C -362.48302,242.4124 -360.81734,269.00168 -338.7653,280.02771 C -319.41639,289.70216 -303.14967,276.02812 -290.58849,263.46693 C -288.19414,261.07258 -288.33126,255.94357 -287.57744,252.92825"
         id="path2671" />
      <path
         d="M -222.53475,110.80095 L -276.94766,337.39359 L -248.79013,335.48953 L -222.53475,110.80095 z "
         fill="#d9db7b" stroke-width="5" stroke-linejoin="round"
         id="path2735" />
    </g>

    <g transform="scale(0.0035) translate(-355,-75)"
       stroke="black" fill="none"
       stroke-width="15" stroke-linecap="round" stroke-linejoin="miter"
       id="wolfsbane">
      <path
         d="M 515.1778,119.99138 C 496.76003,101.57361 434.01277,142.86007 414.08491,166.55544 C 385.57652,200.45356 384.48921,283.04677 417.193,304.8493 C 457.87123,331.96812 560.77031,332.14585 581.3913,300.33272 C 610.79304,254.97305 613.17704,203.89629 582.30443,161.44645 C 568.54279,142.5242 544.01336,113.58348 515.1778,119.99138 C 508.71988,121.42648 502.60035,114.94062 495.9849,114.94062"
         id="path2463" />
      <path
         d="M 474.79695,192.19193 C 474.79695,192.36191 474.79695,200.73502 474.79695,207.09587"
         id="path2541" />
      <path
         d="M 525.89617,185.80453 C 525.89617,185.97451 525.89617,194.34762 525.89617,200.70847"
         id="path2549" />
      <path
         d="M 457.67969,240.88405 C 457.67969,240.88405 468.64888,257.87534 475.74599,264.97245 C 492.50198,281.72843 513.3974,277.00338 526.93385,263.46693 C 531.56861,258.83217 534.49894,251.3478 537.47253,245.40062"
         id="path2651" />
      <path
         d="M 561.38513,125.76489 C 546.85202,130.76427 540.18234,149.76883 540.18234,149.76883 C 540.18234,149.76883 557.15518,160.49748 569.83583,156.02493 C 582.53401,151.54619 594.43948,131.656 594.43948,131.656 C 594.43948,131.656 575.89413,120.77381 561.38513,125.76489 z "
         fill="#7def79" stroke-width="5" stroke-linejoin="round"
         id="path2741" />
      <path
         d="M 431.90995,125.01213 C 417.37684,130.01151 410.70716,149.01607 410.70716,149.01607 C 410.70716,149.01607 425.00752,158.91369 440.36065,155.27217 C 456.06988,151.54619 467.22259,131.656 467.22259,131.656 C 467.22259,131.656 446.41895,120.02105 431.90995,125.01213 z "
         fill="#7def79" stroke-width="5" stroke-linejoin="round"
         id="path2750" />
      <path
         d="M 498.90583,105.4403 C 484.37272,110.43968 480.33771,128.3151 480.33771,128.3151 C 480.33771,128.3151 500.69798,137.16184 513.37863,132.68929 C 526.07681,128.21055 534.59485,110.20227 534.59485,110.20227 C 534.59485,110.20227 513.41483,100.44922 498.90583,105.4403 z "
         fill="#7def79" stroke-width="5" stroke-linejoin="round"
         id="path2752" />
    </g>

    <g transform="scale(0.0035) translate(-360,-345)"
       stroke="black" fill="none"
       stroke-width="15" stroke-linecap="round" stroke-linejoin="miter"
       id="herbalist">
      <path
         d="M 525.27932,383.6412 C 491.65595,391.11306 486.84875,373.101 443.45697,399.80364 C 396.43364,428.74107 378.78412,523.50694 405.07117,569.50927 C 443.31022,636.4276 558.97335,595.49771 590.93924,545.2656 C 628.38212,486.42679 603.0733,430.22997 553.56359,391.72242 C 540.23293,381.35412 530.23678,371.63397 513.15749,369.49906"
         id="path2465" />
      <path
         d="M 476.92608,451.94631 C 476.99212,452.01235 478.2049,462.17685 479.05522,468.97939"
         id="path2573" />
      <path
         d="M 528.0253,441.30064 C 528.37855,441.65388 528.0253,457.26925 528.0253,464.72112"
         id="path2577" />
      <path
         d="M 439.61339,504.35097 C 439.61339,504.35097 456.16024,523.90887 465.20732,532.95596 C 478.38052,546.12916 515.27479,533.25005 526.93385,523.9228 C 533.77123,518.4529 539.93573,512.42645 545.00016,507.36203"
         id="path2649" />
      <path
         d="M 566.32343,509.96653 C 567.38787,525.29859 584.0163,536.66315 584.0163,536.66315 C 584.0163,536.66315 598.77506,523.04845 597.73965,509.64208 C 596.7028,496.21719 580.57512,479.56613 580.57512,479.56613 C 580.57512,479.56613 565.26075,494.65991 566.32343,509.96653 z "
         fill="#7def79" stroke-width="5" stroke-linejoin="round"
         id="path2760" />
      <path
         d="M 589.9759,519.87031 C 579.15678,530.78596 581.58785,550.77966 581.58785,550.77966 C 581.58785,550.77966 601.55627,552.88758 610.94747,543.26428 C 620.35165,533.62766 622.22355,510.52234 622.22355,510.52234 C 622.22355,510.52234 600.77709,508.97276 589.9759,519.87031 z "
         fill="#7def79" stroke-width="5" stroke-linejoin="round"
         id="path2756" />
      <path
         d="M 559.23624,552.98291 C 568.24515,565.4346 588.36791,566.29055 588.36791,566.29055 C 588.36791,566.29055 593.6801,549.73025 585.73197,536.09916 C 577.59949,522.15192 555.32592,517.2641 555.32592,517.2641 C 555.32592,517.2641 550.24228,540.55187 559.23624,552.98291 z "
         fill="#7def79" stroke-width="5" stroke-linejoin="round"
         id="path2758" />
      <path
         d="M 611.52627,560.95301 L 546.68168,561.33494 L 560.12441,603.87156 L 598.82061,604.97855 L 611.52627,560.95301 z "
         stroke-width="7.5" fill="#d9db7b" stroke-linejoin="round" 
         id="path2754" />
    </g>

    <g transform="scale(0.0035) translate(-640,-355)"
       stroke="black" fill="none"
       stroke-width="15" stroke-linecap="round" stroke-linejoin="miter"
       id="werewolf2">
      <path
         d="M 796.00021,396.77318 C 770.39473,375.43529 698.18106,442.4022 683.87327,462.4331 C 653.82925,504.49473 687.61101,583.32822 731.35044,600.82399 C 796.71549,626.97001 880.70923,580.61851 894.99516,513.95088 C 907.48439,455.66779 874.69791,404.33755 814.18295,396.77318 C 805.01444,395.62712 802.90907,394.48596 796.00021,391.72242"
         id="path2473" />
      <path
         d="M 764.35921,451.94631 C 768.40519,455.99229 762.93979,463.30169 762.23008,468.97939"
         id="path2579" />
      <path
         d="M 813.3293,451.94631 C 817.46759,456.08461 816.16815,463.30169 817.58757,468.97939"
         id="path2581" />
      <path
         d="M 730.17977,507.36203 C 730.17977,507.36203 740.27168,527.99262 748.24607,535.96701 C 751.25712,538.97806 754.26817,541.98911 757.27922,545.00016 C 769.979,557.69993 791.56392,556.34648 805.45603,548.01121 C 808.55916,546.14933 811.47814,543.99647 814.48919,541.98911 C 823.92991,535.69529 827.08472,520.67849 832.55549,513.38413"
         id="path2673" />
      <path
         d="M 757.82927,548.14899 L 766.86242,580.51779 L 773.63728,552.66557 L 757.82927,548.14899 z "
         fill="#d36060" stroke-width="5"
         id="path2762" />
      <path
         d="M 788.71464,553.91281 L 797.74779,580.2595 L 803.76989,549.39623 L 788.71464,553.91281 z "
         fill="#d36060" stroke-width="5"
         id="path2764" />
      <path
         d="M 749.7516,430.58023 C 732.54261,426.03444 714.51639,402.66995 701.57479,385.41448 C 701.47706,399.28417 696.22962,422.52734 688.02506,447.14101 C 686.16717,452.71469 688.02506,462.18295 688.02506,468.21837"
         stroke-width="10" stroke-linejoin="round" />
      <path
         d="M 823.52234,421.54708 C 823.52234,421.97349 840.7571,396.52649 850.62179,371.86475 C 851.16831,370.49846 870.51018,408.0746 876.21572,436.60234 C 876.61075,438.57747 876.21572,442.11375 876.21572,444.12996"
         stroke-width="10" stroke-linejoin="round" />
    </g>
  </defs>

<g transform="translate(2.5,2.5) scale(15)" >
<use xlink:href="#neutralsquare" />
<use xlink:href="#nothing" />
</g>

<g transform="translate(22.5,2.5) scale(15)" >
<use xlink:href="#neutralsquare" />
<use xlink:href="#unknown" />
</g>

<g transform="translate(42.5,2.5) scale(15)" >
<use xlink:href="#villagesquare" />
<use xlink:href="#villager1" />
</g>

<g transform="translate(62.5,2.5) scale(15)" >
<use xlink:href="#villagesquare" />
<use xlink:href="#villager2" />
</g>

<g transform="translate(82.5,2.5) scale(15)" >
<use xlink:href="#villagesquare" />
<use xlink:href="#villager3" />
</g>

<g transform="translate(2.5,22.5) scale(15)" >
<use xlink:href="#villagesquare" />
<use xlink:href="#villager4" />
</g>

<g transform="translate(22.5,22.5) scale(15)" >
<use xlink:href="#villagesquare" />
<use xlink:href="#villager5" />
</g>

<g transform="translate(42.5,22.5) scale(15)" >
<use xlink:href="#villagesquare" />
<use xlink:href="#villager6" />
</g>

<g transform="translate(62.5,22.5) scale(15)" >
<use xlink:href="#villagesquare" />
<use xlink:href="#villager7" />
</g>

<g transform="translate(82.5,22.5) scale(15)" >
<use xlink:href="#villagesquare" />
<use xlink:href="#granger" />
</g>

<g transform="translate(2.5,42.5) scale(15)" >
<use xlink:href="#villagesquare" />
<use xlink:href="#seer" />
</g>

<g transform="translate(22.5,42.5) scale(15)" >
<use xlink:href="#villagesquare" />
<use xlink:href="#fool" />
</g>

<g transform="translate(42.5,42.5) scale(15)" >
<use xlink:href="#villagesquare" />
<use xlink:href="#priest" />
</g>

<g transform="translate(62.5,42.5) scale(15)" >
<use xlink:href="#villagesquare" />
<use xlink:href="#wolfsbane" />
</g>

<g transform="translate(82.5,42.5) scale(15)" >
<use xlink:href="#villagesquare" />
<use xlink:href="#herbalist" />
</g>

<g transform="translate(2.5,62.5) scale(15)" >
<use xlink:href="#villagesquare" />
<use xlink:href="#slayer" />
</g>

<g transform="translate(22.5,62.5) scale(15)" >
<use xlink:href="#wolfsquare" />
<use xlink:href="#werewolf1" />
</g>

<g transform="translate(42.5,62.5) scale(15)" >
<use xlink:href="#wolfsquare" />
<use xlink:href="#werewolf2" />
</g>

<g transform="translate(62.5,62.5) scale(15)" >
<use xlink:href="#wolfsquare" />
<use xlink:href="#warlock" />
</g>

<g transform="translate(82.5,62.5) scale(15)" >
<use xlink:href="#neutralsquare" />
</g>

<g transform="translate(22.5,82.5) scale(15)" >
<use xlink:href="#villagesquare" />
<use xlink:href="#deathmark" />
<use xlink:href="#villager1" />
</g>

<g transform="translate(42.5,82.5) scale(15)" >
<use xlink:href="#wolfsquare" />
<use xlink:href="#deathmark" />
<use xlink:href="#werewolf1" />
</g>

<g transform="translate(62.5,82.5) scale(15)" >
<use xlink:href="#villagesquare" />
<use xlink:href="#sanctuarymark" />
<use xlink:href="#priest" />
</g>

</svg>
